<svg xmlns="http://www.w3.org/2000/svg"><symbol id="nf-leaf" viewBox="0 0 700 760"><path fill-rule="evenodd" d="M111.0 611.3L110.2 611.6L109.1 612.6L104.0 618.5L101.4 622.2L98.4 627.2L96.1 632.0L95.9 634.0L95.0 636.2L95.0 640.0L96.4 643.0L97.3 644.0L98.2 644.6L100.8 645.2L103.8 644.4L105.2 643.4L107.3 640.8L108.6 638.2L109.0 634.5L108.7 633.5L108.2 633.6L106.9 635.5L105.7 636.6L104.5 637.4L103.5 637.5L102.0 636.8L101.0 635.7L99.9 633.8L99.8 632.0L100.9 628.5L102.0 626.2L106.4 619.0L109.4 614.5ZM189.5 471.4L189.2 472.0L188.9 474.0L188.1 476.5L188.0 480.8L187.3 485.2L188.2 490.2L189.8 492.0L190.5 492.4L191.2 492.5L193.0 491.8L194.4 490.5L195.6 488.0L195.7 485.5L195.5 484.9L195.2 484.9L193.5 485.8L192.0 485.8L191.1 485.2L190.0 483.5L189.8 482.2L189.7 472.3ZM102.0 432.8L101.2 433.5L100.1 435.5L99.1 438.5L98.9 440.5L98.1 443.0L98.1 445.5L98.9 447.5L99.6 448.3L100.5 448.6L103.0 448.8L105.5 449.7L108.2 449.8L110.5 450.7L113.0 450.7L114.0 450.3L114.7 449.2L115.7 446.2L115.7 436.8L115.3 435.3L114.0 434.3L111.2 433.3L108.2 432.9L106.0 432.1L103.5 432.1ZM244.5 416.4L243.5 416.4L242.5 417.0L241.2 418.3L240.3 419.8L239.1 422.8L238.9 424.8L238.1 426.5L237.9 428.2L237.1 430.2L236.9 432.0L236.1 434.0L235.9 436.5L235.2 437.2L234.5 437.2L234.0 436.7L233.6 434.0L231.5 428.8L230.6 427.3L229.2 426.0L227.5 425.1L225.8 425.1L224.3 426.3L223.1 428.5L223.0 433.0L223.8 434.7L224.8 435.5L226.5 434.9L227.5 435.0L228.7 436.0L229.7 437.5L231.9 444.0L232.0 449.0L232.4 450.0L232.8 450.0L233.4 449.7L234.6 447.2L234.9 445.8L235.7 444.0L235.9 442.5L236.6 440.8L236.9 439.0L237.6 437.2L237.8 435.0L238.6 433.0L238.9 431.2L239.6 429.5L239.9 427.8L241.0 425.3L241.8 424.4L242.5 424.2L243.2 424.6L244.3 425.9L245.0 426.0L245.8 425.2L246.6 423.8L247.4 420.8L247.4 419.8L246.2 417.5ZM64.0 412.8L63.4 413.3L63.0 414.5L63.0 423.2L63.3 426.8L64.0 429.5L64.1 432.0L64.8 433.2L66.5 434.2L67.8 434.7L69.2 434.7L70.5 434.1L71.5 433.0L71.7 432.0L71.7 429.3L71.5 428.9L71.2 428.8L69.5 429.8L68.2 429.9L67.0 429.3L66.0 428.2L64.8 422.2L64.7 414.5L64.4 413.1ZM144.3 409.8L143.5 410.8L143.0 412.0L143.0 422.2L144.2 426.0L144.6 426.5L145.0 426.6L145.7 426.0L146.7 423.8L146.7 416.0L145.9 413.5L145.5 411.2L144.8 410.1ZM286.3 380.6L285.3 384.0L285.1 387.0L284.1 391.0L283.8 399.8L284.0 402.8L284.6 404.0L285.6 405.2L286.8 406.2L287.5 406.6L288.5 406.7L289.2 406.5L289.8 406.0L291.5 403.2L292.7 399.8L292.7 396.8L292.5 396.1L292.0 396.0L290.2 397.8L289.5 398.0L288.5 397.9L287.3 397.0L285.9 395.0L285.6 386.2L286.4 383.5L286.6 381.0ZM80.5 373.3L80.1 373.6L79.4 374.5L77.3 378.5L75.2 383.2L73.1 389.0L72.8 390.8L72.1 392.5L71.9 394.2L71.0 396.5L71.0 403.5L71.2 404.8L72.1 406.2L73.0 407.2L75.0 408.4L76.0 408.7L79.5 408.6L81.8 407.4L83.7 406.0L85.4 403.8L86.5 401.2L87.7 396.5L87.6 394.2L86.6 390.0L86.1 389.0L84.4 386.5L80.3 383.2L79.2 381.5L79.2 380.8L79.7 379.0L79.8 377.2L80.7 375.0L80.7 373.8ZM75.5 391.8L76.3 391.4L77.2 391.6L81.0 393.6L82.1 394.5L83.3 395.8L83.9 396.8L83.9 398.0L83.2 399.0L81.2 400.5L79.8 401.0L77.5 400.9L75.5 399.6L74.8 398.5L74.5 396.5L74.8 393.0ZM560.3 366.3L559.7 365.7L558.8 365.3L558.0 365.4L557.3 365.8L553.5 370.2L551.4 373.8L549.9 377.0L549.1 379.2L548.3 383.0L546.7 393.8L545.1 398.5L544.3 400.0L543.0 401.6L541.0 403.1L538.8 404.3L535.8 405.4L532.2 406.2L528.3 406.7L527.5 406.6L526.9 406.2L526.7 405.7L526.9 405.0L528.6 402.0L530.7 397.2L532.4 391.2L533.0 385.8L532.6 382.5L531.9 379.5L530.9 377.0L529.6 375.0L528.2 373.3L526.2 371.7L524.0 370.6L522.5 370.1L518.5 369.5L516.0 369.6L512.5 370.4L509.2 371.9L506.8 373.5L504.0 375.8L502.0 377.8L500.3 380.0L497.4 384.5L495.8 387.5L493.5 394.0L492.8 397.2L492.5 401.0L492.9 404.0L493.5 406.0L494.4 408.0L496.8 411.7L496.8 412.5L496.0 413.2L493.8 414.0L487.8 415.4L485.2 415.7L481.0 415.9L477.8 415.7L474.5 415.1L472.8 414.2L471.0 412.8L469.3 412.6L468.5 412.9L468.0 413.5L466.3 417.0L464.8 419.0L463.5 420.2L462.0 421.2L459.8 421.9L457.8 421.9L454.5 421.0L451.5 419.4L450.3 419.3L449.3 420.0L446.7 423.0L444.2 425.3L442.0 426.9L438.8 428.3L435.0 429.0L431.0 429.0L426.5 428.1L421.8 426.1L420.8 426.1L419.8 426.6L419.1 428.0L416.6 445.2L414.7 455.8L412.8 463.8L409.2 475.0L407.0 480.5L405.2 484.2L401.7 490.0L399.7 492.8L397.0 496.0L392.0 500.9L388.0 504.0L383.5 506.8L379.5 508.8L375.0 510.5L369.2 511.9L362.8 512.7L357.2 512.7L353.0 512.5L348.0 511.8L343.5 510.6L340.0 509.5L334.8 506.9L331.8 504.9L329.5 503.0L326.0 498.8L323.9 495.0L322.9 492.8L322.1 490.0L321.0 484.0L321.0 478.8L321.3 474.8L321.8 471.2L323.5 463.8L326.9 454.2L332.8 441.5L332.6 440.5L331.7 439.8L330.5 439.2L329.5 439.3L328.8 440.0L326.2 444.2L321.9 452.2L316.4 465.0L313.3 474.5L311.4 482.2L310.1 489.2L309.0 497.2L309.0 505.0L309.3 507.8L310.1 512.0L311.0 515.0L312.2 518.0L314.8 522.8L318.1 527.0L319.8 528.7L322.2 530.7L327.2 533.9L330.5 535.4L335.0 536.9L338.2 537.7L343.5 538.5L347.0 538.7L351.2 538.7L356.5 538.2L360.5 537.4L366.0 535.7L369.0 534.5L374.2 531.9L378.2 529.5L382.5 526.4L386.2 523.2L389.7 520.0L393.7 515.5L399.2 508.5L403.9 501.2L407.9 494.0L413.4 482.0L417.2 471.5L419.5 463.8L421.5 455.5L423.1 446.0L423.8 444.6L425.0 444.0L427.5 444.0L429.2 443.6L432.8 442.3L437.0 439.8L443.0 435.4L444.0 435.4L446.5 436.9L448.8 437.5L451.2 437.4L454.2 436.6L456.5 435.5L458.2 434.4L463.5 429.6L464.5 429.0L465.2 429.0L468.0 430.3L469.8 430.7L475.8 431.0L480.0 430.6L488.0 428.9L495.0 426.4L500.2 423.9L508.8 419.0L510.5 418.2L518.2 419.0L524.0 419.2L528.5 418.4L531.8 417.5L534.2 416.5L537.2 415.0L541.5 412.1L546.2 407.8L549.1 404.2L551.8 399.5L554.4 393.5L556.2 387.5L559.0 373.0L560.4 367.5ZM509.2 384.9L511.5 384.5L514.2 384.5L516.5 385.0L518.5 385.9L520.5 387.3L521.6 388.8L522.6 390.5L523.5 393.2L523.7 394.8L523.6 396.5L523.0 398.5L521.9 400.2L520.2 402.0L519.0 402.9L516.2 404.6L514.2 405.4L512.8 405.4L509.8 404.8L505.8 403.0L504.0 401.7L502.6 400.2L501.4 398.2L500.9 396.8L500.8 392.8L501.3 391.2L502.3 389.5L503.5 388.0L505.0 386.9L507.2 385.6ZM119.2 361.1L119.0 361.8L119.0 365.0L119.2 366.8L120.3 368.5L123.5 372.2L128.3 376.6L130.0 377.5L132.0 377.9L133.2 378.0L135.0 377.6L136.0 377.0L136.5 376.2L137.7 373.5L137.7 369.8L136.5 366.2L135.5 364.8L134.0 363.8L132.0 363.0L130.5 363.0L129.0 363.3L127.6 364.1L127.5 364.7L127.8 365.3L131.5 367.4L132.6 368.3L132.9 369.0L132.6 369.6L132.0 369.9L131.2 369.9L129.8 369.2L126.0 366.4L120.3 361.1L119.6 360.9ZM337.6 354.0L336.9 354.5L334.6 358.2L333.7 358.8L325.0 359.0L324.2 359.3L322.1 360.5L320.1 364.0L319.9 366.0L319.0 368.5L319.0 371.0L319.3 371.9L320.0 372.0L323.2 371.1L328.8 371.5L332.0 370.6L332.7 370.2L333.5 369.0L333.9 367.2L334.6 365.8L334.8 363.2L335.6 361.5L335.9 359.2L337.6 355.2ZM383.1 327.6L382.7 327.4L382.1 327.6L379.7 330.5L377.0 333.2L372.2 336.7L368.5 338.2L367.3 339.1L366.3 340.3L364.4 343.5L362.4 346.2L361.6 348.0L361.7 348.7L362.5 348.5L366.8 346.0L372.5 344.1L373.0 344.4L373.1 345.0L372.0 346.7L371.8 347.6L371.9 347.7L372.4 347.4L377.4 340.5L381.5 334.2L382.6 332.0L383.3 329.2L383.4 328.3ZM518.2 314.4L517.2 314.5L516.2 315.1L509.8 320.3L504.3 325.8L503.2 327.5L503.4 328.5L504.0 329.5L507.5 333.0L513.3 339.7L514.8 340.7L516.0 340.4L518.8 338.9L522.5 336.4L525.2 334.2L527.7 331.2L529.0 328.5L529.0 327.0L528.7 325.5L528.0 323.8L526.9 322.0L525.5 320.2L523.5 318.3L519.8 315.1ZM567.0 312.0L566.0 312.1L565.0 312.6L561.8 315.1L557.0 319.3L553.5 322.8L552.4 324.0L552.0 325.0L552.1 326.0L552.8 327.0L556.2 330.5L562.0 337.2L563.0 337.9L563.8 338.1L565.0 337.8L568.2 336.0L574.0 331.7L576.6 328.8L577.4 327.2L577.7 326.2L577.7 324.2L577.5 323.0L576.6 321.0L575.3 319.0L573.2 316.8L570.2 314.1L568.2 312.5ZM175.2 301.8L174.1 303.5L173.1 306.5L172.9 308.5L172.1 310.5L172.0 314.5L171.0 319.8L171.0 327.0L171.9 332.8L172.2 336.0L173.6 338.2L175.0 339.1L176.0 339.4L178.0 338.7L179.2 337.8L180.1 336.7L181.5 334.2L181.7 333.0L181.7 328.0L181.5 326.9L181.0 326.9L179.0 330.0L178.0 330.6L177.0 330.7L176.1 330.0L175.0 328.5L173.8 325.0L173.8 312.5L174.6 309.2L174.8 306.2L175.7 303.0L175.6 302.1ZM389.5 292.4L388.8 292.8L387.7 293.8L386.2 296.2L384.1 301.5L383.9 303.0L383.2 304.5L383.2 305.2L383.7 306.1L385.3 307.5L388.5 309.4L392.0 310.7L395.0 310.6L395.6 310.2L396.5 308.8L397.6 305.8L397.9 303.5L398.7 301.5L398.6 296.0L398.0 295.2L396.5 294.2L393.5 293.1L391.5 292.9ZM236.5 291.9L236.0 291.8L234.5 292.3L230.5 295.0L227.5 297.7L224.8 299.8L221.2 303.0L218.8 304.8L216.5 306.8L210.8 310.8L209.0 312.3L207.8 313.8L207.1 315.2L206.9 317.2L206.0 319.8L206.1 321.0L206.4 321.6L207.0 321.7L207.7 321.2L214.3 314.9L224.6 306.5L233.4 297.5L236.2 293.2L236.5 292.5ZM540.3 288.1L539.5 287.8L538.5 288.1L518.5 296.7L509.0 301.2L505.8 303.3L502.8 306.0L501.1 308.5L500.9 309.2L501.0 309.9L501.5 310.2L502.3 310.0L507.2 307.5L529.8 298.0L534.0 296.0L536.2 294.5L539.2 291.2L540.3 289.5L540.4 288.8ZM589.0 285.8L588.2 285.4L587.0 285.7L566.8 294.5L558.2 298.5L554.0 301.2L551.5 303.5L550.0 306.0L549.8 306.7L550.0 307.4L550.3 307.7L551.0 307.6L556.0 305.0L579.8 295.0L582.8 293.5L585.2 291.8L586.6 290.5L588.9 287.2L589.2 286.5ZM111.2 277.8L110.5 278.1L109.8 278.8L103.4 287.3L92.8 301.8L83.5 315.2L71.2 335.5L66.2 344.5L62.2 352.5L58.1 361.8L55.2 369.0L52.1 377.8L50.9 382.2L50.1 384.0L49.9 385.8L49.1 387.2L48.9 389.2L48.1 391.8L47.9 393.5L47.2 395.2L46.9 397.2L46.1 399.5L45.9 401.8L45.1 404.5L44.9 407.0L44.1 409.2L44.0 412.2L43.1 415.8L42.9 418.8L42.1 421.5L41.9 425.5L41.0 430.0L41.0 436.2L40.5 440.8L40.5 446.8L41.0 452.0L41.0 458.5L41.9 462.5L42.1 466.8L42.9 469.5L43.1 471.8L43.9 474.8L44.2 477.2L44.9 479.5L45.1 482.2L46.0 484.8L46.0 490.5L45.0 495.5L45.0 502.5L45.1 504.0L45.9 507.0L46.1 511.0L46.9 513.2L47.1 515.5L47.9 517.8L48.1 519.8L48.9 521.2L49.3 523.0L50.4 525.1L50.7 523.2L50.7 518.8L49.8 510.5L49.8 505.2L50.1 502.2L50.6 499.8L50.9 499.1L51.5 498.8L51.9 499.3L55.9 509.5L56.1 511.0L59.9 520.5L60.1 522.0L60.8 523.5L61.9 526.5L62.1 528.0L62.9 529.5L63.1 531.0L64.9 535.5L65.1 537.0L65.8 538.5L66.1 540.2L66.9 541.8L67.1 543.2L68.9 547.8L69.1 549.5L69.9 551.0L70.1 552.8L70.9 554.2L71.1 556.2L71.9 558.0L72.1 560.0L72.9 562.0L73.1 564.5L74.0 567.2L73.9 581.8L72.4 584.8L68.6 590.5L65.1 594.5L61.7 598.7L61.5 599.4L62.0 599.7L63.5 599.4L67.0 596.7L72.0 591.5L87.0 579.0L94.7 571.4L101.2 563.7L104.4 559.5L107.5 554.5L110.5 548.5L112.6 543.2L112.9 541.8L113.6 540.0L113.8 538.0L114.7 536.0L114.9 533.5L115.7 531.2L115.8 527.0L116.5 523.0L116.5 519.8L115.8 517.0L115.6 513.5L114.5 510.2L113.4 507.8L110.7 503.5L106.2 498.5L105.9 497.8L108.0 493.2L112.9 484.6L113.3 484.3L113.8 484.6L114.2 486.5L114.9 488.2L115.1 490.5L115.9 493.0L116.1 495.0L116.9 497.0L117.1 499.2L117.9 501.0L118.1 503.5L118.9 505.8L119.1 508.2L119.9 510.2L120.1 512.8L120.9 515.0L121.1 517.2L121.9 519.5L122.1 521.8L122.9 523.2L123.1 524.8L123.9 526.5L124.1 528.0L126.2 532.8L127.3 534.5L129.5 536.7L130.8 537.4L131.8 537.7L132.8 537.4L134.2 536.6L136.5 534.5L138.4 531.5L139.5 529.0L140.6 526.0L140.9 524.0L141.7 521.8L141.8 517.2L142.5 513.0L142.7 508.8L141.8 499.8L141.7 493.0L140.8 489.2L140.7 485.0L139.8 481.0L139.7 477.0L138.8 474.0L138.7 471.0L137.8 467.8L137.7 464.8L137.0 462.8L137.0 462.0L137.3 461.6L138.3 461.1L144.0 460.7L145.7 460.4L146.2 460.5L146.7 461.0L147.0 462.2L146.0 468.2L146.0 472.8L147.0 478.8L147.0 482.2L147.9 484.5L148.3 486.5L149.5 488.7L151.0 490.2L153.0 491.4L154.5 491.7L157.0 491.7L159.5 490.4L160.6 489.2L161.5 487.8L161.9 484.8L162.7 482.2L162.8 477.5L163.0 475.5L162.8 474.4L162.2 474.0L160.2 473.8L157.8 472.9L155.9 471.5L153.8 469.0L153.0 467.5L151.9 464.2L151.8 455.2L152.7 450.8L152.7 444.2L152.3 443.0L150.8 441.4L150.0 441.1L149.0 441.0L147.5 441.1L146.0 441.9L144.8 442.1L143.2 442.8L139.8 444.0L138.2 443.9L135.5 442.8L133.8 441.5L132.2 439.8L131.0 437.5L129.4 433.8L128.2 432.6L127.4 432.9L126.4 434.2L125.1 438.0L124.9 440.2L124.0 443.2L124.0 449.5L124.9 452.2L125.1 454.5L126.4 457.0L127.8 458.4L129.5 459.5L131.2 460.1L131.9 461.0L132.9 463.8L133.1 466.2L133.9 468.5L134.1 470.8L134.9 472.8L135.1 475.2L135.9 477.5L136.1 480.2L136.9 482.8L137.1 485.8L138.0 490.0L138.0 506.2L137.1 509.8L136.9 512.5L135.9 514.2L135.0 514.9L134.5 514.9L133.8 514.4L132.2 512.8L129.9 507.0L129.6 505.0L128.9 503.2L128.7 501.2L127.9 499.0L127.7 496.5L126.8 494.2L126.7 492.0L125.8 489.8L125.7 487.2L124.9 485.0L124.6 482.2L123.8 480.2L123.7 477.5L122.9 475.5L122.7 473.5L121.9 471.2L121.7 468.8L120.9 466.8L120.5 464.0L119.5 461.8L118.7 460.9L117.8 460.6L117.0 460.7L116.1 461.5L115.2 462.8L114.1 465.2L111.9 472.2L110.2 476.2L107.8 483.8L104.8 491.0L103.4 493.8L102.0 495.5L100.2 496.7L98.0 497.1L96.0 497.7L95.4 497.4L95.3 496.7L95.7 495.0L95.9 492.8L96.7 490.5L96.8 487.5L97.7 484.0L97.7 471.5L96.8 468.5L96.7 466.0L95.9 464.0L95.5 462.2L94.4 459.8L92.6 456.5L90.6 454.3L87.4 451.2L84.2 449.3L81.8 448.1L80.0 447.9L78.0 447.1L75.0 447.0L73.8 447.2L70.5 448.2L68.2 449.4L65.3 451.4L59.5 457.0L56.7 460.1L56.1 460.1L55.3 459.0L53.9 455.0L53.6 452.2L52.8 449.8L52.7 446.5L51.8 443.2L51.7 436.8L51.3 433.5L51.3 425.0L51.7 421.8L51.8 415.2L52.7 411.8L52.8 408.2L53.7 405.5L53.9 402.2L54.7 400.2L54.8 398.2L55.7 396.0L55.8 394.0L56.6 391.8L56.9 390.0L57.6 388.2L57.9 386.5L59.6 382.0L59.9 380.2L63.9 369.5L68.0 360.2L72.2 351.5L77.0 342.5L81.3 335.0L89.8 321.5L91.0 320.3L91.4 320.3L91.8 320.6L92.0 322.2L92.0 324.5L91.0 330.8L91.0 345.2L91.9 350.5L92.0 355.2L92.9 358.5L93.1 361.8L93.9 364.0L94.1 366.5L94.9 368.8L95.1 370.8L95.9 372.5L96.1 374.2L96.8 376.0L98.1 380.5L100.2 385.8L103.9 393.2L104.2 394.8L103.7 397.5L101.8 401.2L99.9 404.2L93.4 412.7L90.5 416.0L88.9 418.2L86.6 421.0L82.6 427.0L82.4 427.9L82.8 428.1L83.5 427.9L85.7 426.2L98.5 412.5L104.3 404.8L106.9 400.3L107.8 399.7L108.9 400.3L117.0 408.2L120.5 411.0L125.3 415.5L128.5 418.0L132.2 421.7L133.4 422.3L133.9 421.7L134.2 420.5L134.2 418.2L133.8 413.8L133.7 408.2L132.6 404.2L130.6 400.5L128.5 398.0L124.2 394.0L120.3 391.7L119.1 390.7L116.9 388.5L114.9 385.2L113.9 383.0L113.6 380.8L112.0 378.2L109.9 373.0L109.5 371.5L107.9 368.0L107.5 366.5L105.9 362.5L105.6 360.8L104.9 359.0L104.6 357.2L103.8 355.5L103.7 353.5L102.8 351.0L102.7 348.5L101.8 346.0L101.7 341.0L101.0 336.5L100.8 332.5L101.0 327.0L101.7 322.2L101.8 315.8L102.7 312.8L102.8 309.5L103.7 306.8L103.8 304.2L104.7 301.8L104.8 299.5L105.6 297.2L105.9 295.2L106.6 293.8L106.9 292.2L107.6 290.5L107.9 289.0L110.0 283.0L111.6 279.0L111.6 278.1ZM70.8 462.9L72.2 463.1L76.2 464.0L78.8 465.3L82.7 468.3L85.5 472.0L86.8 474.2L88.9 479.2L89.1 481.2L89.9 483.2L90.0 486.5L90.7 492.2L90.7 493.8L90.0 497.5L90.0 502.0L89.1 504.5L88.9 507.5L88.1 509.5L87.9 512.0L87.1 514.5L86.9 517.0L86.1 519.0L85.9 521.5L85.4 522.4L84.8 522.6L84.1 522.2L83.8 521.5L83.7 517.8L82.9 515.2L82.7 512.0L81.8 509.2L81.7 506.0L80.9 503.8L80.6 501.5L79.8 499.0L79.7 496.5L78.9 494.5L78.6 492.5L77.9 490.5L77.7 488.2L76.9 486.2L76.6 484.0L75.9 481.8L75.7 480.0L75.4 479.5L75.0 479.5L74.5 480.0L74.0 481.5L74.1 493.0L74.9 495.8L75.1 498.5L75.9 500.8L76.1 503.0L76.9 505.0L77.1 507.2L77.9 509.5L78.1 511.8L78.9 513.8L79.1 516.0L79.9 518.2L80.1 520.5L80.9 523.2L81.1 525.8L81.9 528.8L82.1 531.5L82.9 534.2L83.1 537.2L83.9 540.5L84.1 543.5L85.3 546.6L85.4 546.6L86.2 540.5L86.3 538.2L86.7 535.2L86.8 529.0L87.7 525.5L87.8 521.8L88.4 520.2L89.3 519.0L90.9 517.3L92.3 516.2L94.5 514.9L97.5 513.9L98.5 513.8L100.2 514.0L102.2 514.9L103.5 515.8L106.1 518.5L107.8 521.5L108.9 524.8L109.1 526.8L109.7 529.2L110.0 531.5L109.9 533.8L109.1 536.2L108.8 538.2L106.6 542.5L104.0 546.2L97.7 553.2L86.5 564.4L83.3 567.4L82.5 567.8L82.0 567.4L81.8 566.5L82.0 556.5L81.8 553.8L81.7 548.2L80.9 545.8L80.7 543.2L79.9 541.0L79.6 539.0L78.9 537.2L78.6 535.5L77.9 534.0L77.6 532.5L75.9 527.8L75.6 526.2L71.9 515.8L71.6 514.0L70.9 512.5L69.6 508.0L67.9 503.5L67.6 502.0L66.9 500.5L65.6 496.2L63.9 492.0L63.6 490.5L61.9 486.2L59.9 480.2L59.7 478.5L58.9 476.8L58.6 474.5L57.8 472.2L57.9 471.2L58.6 469.8L60.0 468.1L62.0 466.3L66.5 463.9ZM229.1 262.9L228.3 263.8L226.1 269.0L225.9 271.2L225.0 275.0L225.0 278.8L226.2 282.8L226.9 284.0L227.5 284.6L229.2 285.5L230.8 285.7L231.8 285.5L233.0 284.9L234.5 283.2L235.7 280.2L235.7 277.3L235.5 276.6L235.0 276.5L233.0 278.4L232.2 278.8L231.8 278.8L230.3 277.7L229.0 276.0L228.0 271.8L228.7 267.5L228.8 265.0L229.3 263.3ZM187.0 259.1L185.0 259.0L183.8 259.6L182.3 261.2L181.2 263.5L180.8 265.2L180.1 266.8L179.9 269.0L179.1 271.2L178.9 274.0L178.1 276.5L177.9 279.8L177.1 281.7L176.7 282.3L176.3 282.4L175.9 282.2L173.4 277.2L171.2 274.0L168.5 271.0L166.5 269.3L165.2 269.0L162.8 269.2L162.0 269.8L161.1 271.8L161.0 276.5L162.4 279.5L163.3 280.3L164.2 280.6L165.0 280.5L166.5 279.9L167.2 279.9L169.4 281.5L171.4 284.0L172.9 286.5L174.8 290.2L176.1 294.2L176.8 295.0L177.2 295.0L177.6 294.5L177.9 292.5L178.7 290.2L178.8 287.2L179.7 284.0L179.8 280.8L180.6 277.5L180.8 275.2L181.7 272.8L182.0 269.8L183.3 268.1L184.5 267.8L185.5 268.1L187.7 269.8L188.5 270.0L189.4 269.0L190.6 266.2L190.7 264.2L190.4 263.0L188.8 260.5ZM351.0 214.7L350.3 215.1L349.5 216.2L348.2 218.5L345.1 226.0L344.9 227.5L344.1 229.0L343.9 231.2L343.1 233.8L343.0 237.8L344.0 241.5L344.0 246.2L345.0 249.5L344.9 255.0L344.2 255.9L341.1 258.3L339.2 260.5L337.1 264.8L336.9 266.5L336.3 268.5L336.6 268.9L337.0 268.8L340.2 266.3L343.5 264.8L345.5 264.6L346.2 264.9L346.8 265.5L347.1 268.0L348.0 270.5L348.1 273.8L348.9 276.2L349.1 279.8L350.0 282.5L350.0 286.0L350.9 288.8L351.1 292.8L351.9 295.0L352.1 298.5L352.9 301.0L353.1 305.2L353.9 307.5L354.1 311.0L354.9 313.2L355.1 316.2L355.9 318.5L356.1 320.8L358.1 325.8L359.2 327.5L361.3 330.2L364.9 332.3L365.3 333.0L365.6 334.3L365.8 334.4L366.5 333.5L371.6 321.8L371.9 320.5L372.6 319.0L372.9 317.2L373.6 315.5L373.7 313.5L373.3 312.8L371.6 316.4L371.0 316.8L370.3 316.6L368.0 313.0L366.9 310.2L366.6 308.2L365.9 306.8L365.7 304.2L364.8 302.0L364.6 299.0L363.8 296.8L363.7 293.2L362.8 290.5L362.7 287.0L361.8 284.2L361.7 280.2L360.8 277.5L360.7 274.0L359.8 271.5L359.7 267.8L358.8 264.8L358.7 260.2L358.9 259.3L359.5 258.3L363.4 255.6L365.4 253.5L366.6 251.2L367.6 248.5L367.9 246.8L368.6 244.5L368.3 244.0L367.7 244.0L364.5 245.7L362.5 246.1L360.5 246.9L357.5 247.3L356.8 246.7L355.8 244.0L355.7 240.2L354.8 237.2L354.7 233.5L353.8 230.2L353.7 226.2L352.8 223.5L352.7 219.8L351.8 217.5L351.6 215.1L351.4 214.7ZM332.2 199.7L330.8 199.0L328.8 199.0L327.8 199.3L326.6 200.3L325.2 202.8L324.0 206.2L324.0 209.5L323.3 214.5L323.2 221.8L322.9 224.2L322.6 224.8L322.3 224.9L321.9 224.7L319.6 221.3L314.8 216.3L312.5 214.5L310.2 213.7L309.3 213.6L308.0 214.5L307.1 216.0L307.1 221.2L308.5 225.0L309.1 225.7L309.8 225.9L311.8 224.6L312.8 224.4L314.5 225.1L316.0 226.5L319.3 231.0L321.8 235.5L322.4 237.5L321.9 238.8L314.7 245.6L312.0 247.6L309.2 249.9L307.3 251.3L304.5 253.8L302.3 255.3L299.7 257.6L297.5 259.1L295.2 261.0L287.5 266.6L279.0 272.4L277.8 273.7L277.7 274.5L278.3 274.5L281.2 273.5L289.5 269.5L296.5 265.3L303.2 260.7L307.6 257.4L315.0 250.7L321.7 243.2L323.6 240.2L324.7 237.8L324.8 234.8L325.5 226.5L325.3 223.5L325.7 218.5L325.8 213.5L326.9 209.8L328.1 208.2L329.3 207.8L330.2 208.0L332.2 209.5L333.2 209.5L333.7 209.0L334.7 206.8L334.6 202.5L333.6 201.0ZM527.2 194.2L526.3 194.7L525.1 195.8L523.2 199.0L522.1 203.0L522.2 206.0L522.8 207.0L524.2 208.3L527.5 209.9L531.5 212.4L532.5 212.8L533.2 212.7L534.3 211.7L535.6 209.0L535.9 207.0L536.7 204.8L536.8 202.5L537.5 200.0L537.4 198.8L536.9 197.8L536.0 196.6L533.8 195.3L530.0 194.1ZM360.0 184.4L359.6 184.6L359.2 185.3L358.9 187.2L358.1 189.5L357.9 192.0L357.0 195.0L356.9 198.2L356.1 201.2L356.1 204.0L357.4 206.5L363.8 216.5L366.8 222.2L370.8 230.5L372.9 235.8L374.1 239.8L375.9 243.8L376.1 245.2L377.9 249.8L378.1 251.5L378.9 253.0L379.1 254.8L379.9 256.2L380.1 258.5L380.9 260.5L381.1 262.5L381.9 264.5L382.1 267.0L383.0 269.5L383.1 272.0L383.9 274.5L384.1 277.5L384.9 280.0L385.1 283.0L385.9 285.0L386.1 287.0L386.3 287.3L386.6 287.4L387.1 287.0L387.6 286.2L387.9 284.2L388.7 282.0L388.8 277.8L389.5 273.0L389.5 266.0L388.8 261.2L388.7 255.5L387.8 252.8L387.7 249.2L386.8 246.8L386.6 244.2L385.8 242.2L385.6 239.8L384.9 238.0L384.6 236.0L383.8 234.2L383.6 232.5L382.9 231.0L382.7 229.5L381.9 227.8L381.6 226.2L380.9 224.8L380.6 223.2L380.0 222.0L378.6 217.8L375.6 210.5L371.5 202.2L365.1 191.0L361.6 185.3L360.7 184.5ZM388.0 181.8L387.3 182.0L386.7 182.5L385.3 185.0L384.9 186.8L384.1 188.5L384.0 190.5L384.3 191.7L384.8 192.1L385.5 191.9L387.5 190.9L388.5 191.0L389.7 192.0L390.6 194.0L390.8 195.2L390.7 196.5L390.1 198.5L389.9 200.8L388.2 205.2L388.2 205.8L388.5 205.9L389.1 205.5L390.5 203.5L392.6 198.8L392.9 197.2L393.7 195.0L393.7 190.0L393.6 189.0L392.6 186.5L391.0 184.0L389.5 182.3ZM473.6 165.9L473.0 165.7L471.2 166.2L461.8 170.8L447.5 178.2L436.5 184.4L425.0 191.5L412.8 199.8L404.0 206.5L402.1 208.5L399.9 211.8L398.3 214.7L398.3 215.6L398.6 215.8L399.3 215.7L401.5 214.4L414.5 204.8L423.2 199.0L431.2 194.1L452.0 182.0L470.7 172.0L471.7 171.2L472.5 170.0L473.7 167.2ZM481.3 140.8L480.7 140.3L479.8 140.1L474.5 142.2L461.5 148.3L454.5 152.4L448.0 156.5L440.5 162.0L434.3 167.1L429.0 172.2L428.5 173.2L429.0 173.3L443.2 166.0L456.5 159.9L466.8 155.9L472.8 153.9L474.2 153.6L477.5 152.3L478.9 150.8L480.6 146.8L481.7 142.5L481.6 141.5ZM452.1 135.8L449.8 136.1L446.5 137.8L436.5 141.8L426.8 144.9L424.8 145.1L422.2 146.0L419.2 146.1L416.8 146.9L413.0 147.1L410.2 147.9L406.5 148.0L403.2 148.9L399.2 149.0L396.0 149.9L392.2 150.0L389.0 150.9L385.2 151.1L382.8 151.9L379.2 152.1L376.8 152.9L374.0 153.1L371.8 153.9L369.0 154.1L366.5 154.9L364.2 155.1L361.5 155.9L359.2 156.1L357.0 156.9L354.8 157.1L352.8 157.9L350.5 158.1L348.5 158.9L346.5 159.1L344.8 159.9L342.8 160.1L341.0 160.8L339.0 161.1L337.0 161.9L335.2 162.1L333.2 162.9L331.2 163.1L329.5 163.9L327.5 164.1L326.0 164.8L324.0 165.2L322.2 165.9L320.5 166.1L315.8 167.9L314.2 168.1L312.8 168.9L311.2 169.1L309.8 169.9L308.2 170.1L304.2 171.8L297.2 174.2L288.2 178.2L280.8 181.8L269.5 188.2L259.5 195.0L251.0 201.6L247.2 205.0L244.0 207.5L238.8 212.8L234.9 217.5L232.2 220.3L225.3 229.3L218.4 240.0L213.3 249.2L210.2 255.5L208.8 259.2L207.2 262.5L203.1 273.2L202.9 274.8L201.1 279.2L200.9 281.0L200.1 282.8L199.9 284.8L199.1 286.5L198.9 288.2L198.1 290.2L197.9 292.5L197.1 295.2L196.9 298.0L196.0 300.8L195.9 304.2L195.0 307.2L195.0 311.8L194.0 316.0L194.0 321.5L193.0 326.0L193.0 334.8L192.3 343.2L192.3 348.5L193.0 354.8L193.0 363.0L194.0 367.5L194.1 373.8L194.9 376.8L195.0 380.2L195.9 383.2L196.0 387.0L196.9 389.5L197.1 392.5L198.0 395.5L198.1 398.5L198.9 400.5L199.1 402.8L199.9 404.8L200.1 406.8L200.8 408.7L200.8 409.4L200.5 409.7L199.8 409.4L199.1 408.5L193.4 398.2L189.1 391.5L180.0 376.0L172.0 360.8L168.0 352.5L163.8 343.0L159.9 332.5L159.6 331.0L158.9 329.5L158.6 328.0L157.9 326.5L157.6 325.0L156.8 323.2L156.6 321.5L155.8 319.8L155.6 318.0L154.9 316.5L154.6 314.8L153.9 313.0L153.6 311.2L152.3 307.6L152.0 307.3L151.6 307.4L150.6 308.8L148.7 313.0L146.3 317.8L141.9 324.5L137.0 329.3L134.5 330.8L131.8 331.9L130.0 331.9L127.0 330.3L125.6 329.0L123.9 326.2L122.9 323.2L122.8 318.8L123.7 315.5L123.8 313.2L124.6 311.2L124.9 309.5L125.7 308.0L125.9 306.2L127.6 302.2L128.0 300.8L130.0 296.2L134.0 288.5L136.9 283.5L141.1 277.2L144.1 273.3L148.8 267.5L152.0 264.0L161.1 255.0L169.3 247.9L185.5 235.9L198.8 227.6L208.2 222.1L216.2 217.9L225.5 213.5L230.4 210.6L233.0 208.2L236.6 204.4L240.5 198.8L244.6 193.5L245.1 192.5L245.2 191.9L244.5 191.6L242.0 192.1L240.5 192.9L236.2 194.1L226.8 197.8L225.2 198.1L220.2 200.2L205.5 207.2L189.0 216.4L181.2 221.4L174.0 226.6L171.5 228.8L169.0 230.6L166.0 233.2L163.3 235.3L152.8 245.0L144.2 254.3L137.9 262.8L132.3 271.2L127.2 280.5L123.1 289.5L122.1 292.2L121.9 293.8L121.1 295.2L120.9 297.0L120.1 298.8L119.9 301.5L119.0 303.8L119.0 307.2L118.0 313.5L118.0 320.8L119.0 327.8L119.0 333.2L119.9 335.5L120.2 337.2L121.4 339.8L122.8 341.7L125.0 343.4L127.0 344.5L128.2 344.7L133.2 344.7L136.0 343.5L137.6 342.4L141.7 338.4L145.5 333.6L146.4 333.3L146.9 334.0L147.0 340.5L148.0 346.0L148.0 354.5L148.9 358.2L149.0 362.2L149.9 365.2L150.1 368.5L150.9 371.0L151.1 374.2L151.9 376.5L152.1 379.2L152.9 381.5L153.1 384.0L153.9 386.5L154.1 389.0L154.9 391.0L155.1 393.5L155.9 396.0L156.1 398.5L156.9 400.8L157.1 402.8L157.9 405.0L158.1 407.2L158.9 409.5L159.1 411.8L159.9 414.0L160.1 416.5L160.9 418.5L161.1 421.0L161.9 423.2L162.1 426.2L162.9 428.5L163.1 431.2L164.0 433.8L164.1 436.5L164.9 438.8L165.1 441.5L165.9 444.0L166.0 447.5L166.9 450.0L167.1 453.5L168.0 456.5L168.1 461.0L169.0 464.5L169.0 470.5L170.0 476.0L170.0 487.5L169.0 492.5L169.0 497.5L168.1 500.5L167.9 504.2L167.1 506.5L166.9 509.0L166.1 511.0L165.9 513.2L165.1 515.0L164.9 516.8L163.9 519.8L159.8 530.0L157.5 534.8L154.8 539.5L152.9 542.2L147.5 548.9L143.0 553.2L140.3 555.3L136.7 558.7L133.5 561.0L130.2 563.9L124.0 568.6L121.5 570.7L106.5 581.7L97.5 587.7L86.8 594.6L74.5 601.7L63.2 607.8L43.2 617.8L39.5 619.2L31.2 622.8L22.8 626.1L19.0 627.8L17.5 628.2L11.2 630.8L4.5 633.2L3.0 633.9L1.5 634.2L0.6 634.8L0.1 635.3L0.0 636.3L0.0 654.0L0.2 655.0L0.8 655.1L4.5 654.1L6.5 653.3L12.8 651.4L20.8 649.7L22.5 648.9L24.0 648.5L31.2 645.5L36.5 642.9L42.2 640.5L54.2 634.5L67.5 627.5L83.8 618.3L90.5 614.3L96.8 610.2L110.7 600.2L119.4 593.6L121.3 591.9L123.4 590.5L125.3 588.9L127.2 587.7L133.0 583.4L135.5 581.7L136.2 581.5L136.7 581.8L136.8 582.8L133.2 590.5L130.3 597.8L128.9 602.2L128.1 603.8L127.9 605.5L127.1 607.5L126.9 609.0L126.1 610.8L125.9 613.2L125.0 615.8L124.9 619.5L124.0 623.0L124.1 633.8L124.9 636.8L125.1 640.2L125.9 642.2L126.1 644.5L126.9 646.5L127.2 648.2L129.2 653.2L133.2 661.2L137.6 667.7L139.8 670.3L141.3 672.5L149.8 681.0L151.7 682.3L154.3 684.4L160.2 688.1L166.2 691.3L173.0 695.4L183.5 700.7L187.2 702.0L193.8 704.9L202.2 708.1L205.5 709.6L214.2 712.3L216.5 713.4L218.8 713.8L224.0 715.6L226.0 715.8L228.2 716.7L230.2 716.8L232.2 717.6L235.0 717.9L237.5 718.7L240.2 718.8L242.5 719.7L246.2 719.8L248.5 720.7L253.0 720.8L256.2 721.7L262.5 721.8L266.8 722.7L304.8 722.7L309.2 721.8L316.0 721.7L319.0 720.8L323.5 720.7L326.2 719.8L330.2 719.7L332.8 718.8L336.0 718.7L338.2 717.8L341.2 717.7L343.2 716.8L345.8 716.7L348.0 715.8L350.2 715.7L352.2 714.8L354.5 714.6L356.2 713.9L358.2 713.7L360.0 712.9L361.8 712.7L363.5 711.9L365.2 711.7L367.0 710.9L368.8 710.6L370.2 709.9L372.0 709.6L373.5 708.9L375.0 708.6L376.5 707.9L378.0 707.5L393.2 701.6L402.2 697.6L422.2 687.6L434.5 680.4L448.5 671.4L465.0 658.9L473.0 652.1L476.5 649.4L486.5 640.7L502.6 624.5L509.0 617.1L514.5 611.5L516.8 608.5L520.7 604.2L525.8 597.5L528.4 594.5L541.1 576.8L547.2 567.5L555.4 554.5L563.5 540.2L573.5 520.5L578.6 509.2L583.5 497.2L583.9 495.8L586.6 489.0L586.9 487.8L587.6 486.2L587.9 484.8L589.7 480.2L589.9 478.8L590.6 477.2L591.9 473.0L592.7 471.2L592.9 470.0L593.6 468.5L593.9 466.8L594.6 465.2L594.9 463.5L595.6 462.0L595.9 460.2L599.6 449.0L599.9 447.2L601.6 442.5L601.9 440.8L603.4 436.5L603.3 435.8L602.8 435.9L602.4 436.5L599.2 442.5L594.2 453.8L590.1 464.0L583.9 482.0L578.8 494.2L573.6 505.2L566.6 518.5L559.6 530.8L551.6 543.5L545.9 552.2L533.7 569.5L521.9 584.5L518.3 588.3L515.7 591.5L511.0 596.5L505.7 602.7L488.7 619.7L483.8 623.8L479.7 627.7L476.0 630.6L472.7 633.6L470.3 635.3L467.5 637.7L465.5 639.0L463.2 641.0L461.3 642.3L459.2 644.0L452.0 649.2L442.8 655.4L432.5 661.7L429.2 663.3L423.2 666.8L407.2 674.8L398.2 678.8L389.5 682.1L388.2 682.8L379.8 685.9L378.2 686.1L376.8 686.9L375.2 687.1L373.8 687.9L372.0 688.2L370.5 688.9L368.8 689.1L367.2 689.9L365.5 690.1L363.5 690.9L361.8 691.1L360.0 691.9L358.0 692.1L356.2 692.9L354.0 693.1L352.0 693.9L349.5 694.1L347.5 694.9L345.0 695.1L342.8 696.0L340.2 696.1L337.8 696.9L334.5 697.1L332.0 698.0L328.2 698.1L325.2 699.0L320.5 699.0L317.5 700.0L311.0 700.0L306.5 701.0L271.0 701.0L267.5 700.1L261.2 700.0L258.2 699.1L254.0 699.0L251.5 698.1L247.8 697.9L245.5 697.1L242.8 697.0L240.5 696.1L238.0 695.9L236.0 695.1L233.8 695.0L231.5 694.1L229.5 693.9L227.8 693.1L225.8 692.9L224.0 692.1L222.2 691.9L220.5 691.1L218.8 690.9L217.2 690.1L215.8 689.9L214.2 689.2L212.8 688.9L211.2 688.2L209.8 687.9L196.5 682.8L186.2 677.9L178.5 673.8L169.5 668.0L167.2 666.0L165.1 664.6L162.0 661.8L158.1 658.7L152.5 653.1L147.3 646.7L145.1 643.5L142.0 638.2L138.9 631.2L138.6 629.5L137.8 627.8L137.6 625.8L136.8 623.8L136.7 620.2L135.8 617.2L135.8 604.0L136.7 601.0L136.8 597.2L137.7 595.0L137.8 592.8L138.6 591.0L138.8 589.2L139.6 587.2L139.9 585.8L142.2 580.5L145.2 575.0L148.0 571.3L152.2 567.8L155.3 564.9L157.7 563.2L160.3 560.9L163.5 558.5L166.1 556.1L169.0 554.0L172.1 551.1L175.4 548.6L178.1 546.1L181.2 543.7L185.3 540.1L187.7 538.2L190.3 536.1L196.0 532.0L202.0 527.3L205.2 525.1L210.5 522.1L217.0 519.0L230.2 513.6L234.5 511.5L241.2 507.5L248.2 502.7L250.3 500.9L252.2 499.7L256.2 496.7L261.2 492.7L261.9 491.8L261.8 491.3L260.7 491.3L259.0 491.9L257.2 492.1L255.5 492.9L253.0 493.1L250.8 493.9L247.8 494.0L245.2 494.9L242.5 495.1L240.5 495.9L238.5 496.1L236.5 496.9L235.8 496.8L235.5 496.2L235.8 495.6L238.0 494.0L241.4 490.6L245.7 485.2L249.5 479.5L253.5 472.0L257.5 463.2L260.6 455.2L261.6 452.2L261.9 450.8L263.6 446.2L263.9 444.2L264.6 442.5L264.9 440.8L265.7 439.0L265.8 437.0L266.6 435.0L266.9 432.8L267.7 430.8L267.8 428.2L268.7 425.8L268.8 422.8L269.7 420.0L269.8 415.5L270.7 412.2L270.8 403.5L271.5 397.8L271.5 388.0L270.8 380.5L270.7 372.8L269.8 368.0L269.7 361.0L268.8 357.5L268.9 356.5L269.5 355.5L270.3 354.5L274.8 350.6L275.5 350.2L276.0 350.2L276.7 351.0L278.3 355.5L281.1 360.2L285.1 364.5L286.5 365.6L290.5 367.6L294.8 368.0L297.5 367.5L299.5 366.4L301.2 365.0L305.6 360.4L308.4 356.5L311.5 351.2L315.6 342.2L317.6 337.0L317.9 335.2L318.7 333.5L318.9 331.5L319.7 329.8L319.8 327.2L320.7 324.8L320.8 322.2L321.7 319.8L321.8 317.0L322.7 314.5L322.8 311.8L323.7 309.2L323.9 304.8L324.2 303.8L324.8 303.2L325.5 303.2L326.4 304.0L332.7 313.2L336.6 319.5L338.8 323.8L339.1 325.2L339.9 326.8L340.0 330.0L338.7 333.0L337.7 334.5L336.2 335.8L334.8 336.4L334.0 336.3L332.8 335.8L328.5 333.2L326.0 332.5L325.0 332.4L323.5 333.1L322.0 334.8L320.5 337.2L318.1 342.7L318.3 343.5L318.7 344.1L321.3 346.4L324.2 347.7L328.0 348.0L331.8 347.7L334.5 346.5L337.2 344.8L341.1 340.7L343.6 337.2L345.4 334.0L347.7 328.5L347.8 326.2L348.7 323.2L348.6 318.0L347.8 315.0L347.6 312.5L345.6 307.5L343.0 303.0L338.6 296.5L334.3 290.7L329.9 283.2L327.8 278.0L327.6 276.0L326.8 273.8L326.7 268.0L326.4 266.0L325.8 264.3L325.0 264.0L323.6 265.0L321.1 268.5L319.2 272.0L318.1 275.2L318.0 278.5L317.6 281.5L318.0 284.2L318.1 287.2L318.9 289.2L319.2 291.0L321.9 297.2L322.0 299.0L321.1 303.0L321.0 307.0L320.1 310.0L319.9 313.0L319.1 315.2L318.9 317.8L318.1 319.5L317.9 321.5L317.1 323.2L316.9 325.0L316.1 326.5L315.9 328.2L315.1 329.8L314.9 331.0L312.7 336.2L310.6 340.5L308.1 344.2L304.5 347.9L301.8 349.8L299.0 350.2L295.5 349.9L293.5 348.9L292.1 347.7L290.8 346.2L288.8 342.5L288.8 341.0L289.3 340.0L295.0 334.0L298.1 329.7L301.4 324.2L305.6 315.0L305.9 313.5L306.7 311.8L306.9 310.0L307.7 308.0L307.7 297.0L306.5 293.5L305.0 290.8L303.4 289.2L300.2 287.2L298.5 287.1L294.0 289.5L291.0 292.3L287.7 295.8L285.2 299.5L282.2 305.5L280.1 310.5L279.1 313.5L278.9 315.0L278.1 316.8L277.9 318.8L277.1 321.0L276.9 323.5L276.0 325.8L276.0 329.8L275.3 333.5L275.0 338.8L275.1 340.8L276.0 345.0L275.9 346.5L274.5 348.8L270.2 353.2L269.5 353.5L269.0 353.2L268.6 350.5L267.8 347.5L267.7 342.2L266.8 339.0L266.7 334.5L265.8 331.0L265.7 326.0L264.8 322.8L264.7 318.0L263.8 314.5L263.8 309.0L264.1 308.3L265.0 307.3L272.2 302.7L275.6 299.5L277.8 296.2L279.5 292.8L280.5 288.5L280.3 288.0L279.7 288.0L273.8 292.4L271.2 293.8L269.8 294.1L268.2 294.9L264.2 296.0L262.8 295.9L262.0 295.2L261.7 292.0L260.8 288.8L260.7 283.5L259.8 280.0L259.7 271.0L259.0 265.0L259.0 259.5L259.7 255.2L259.8 251.2L260.6 249.2L260.9 247.2L263.0 242.5L265.1 239.8L266.5 238.3L268.5 237.0L272.0 235.8L275.8 235.8L278.5 236.9L280.5 238.1L281.3 239.0L282.8 241.5L284.0 244.8L284.0 252.2L283.1 254.2L282.9 256.2L282.1 257.8L281.5 260.2L281.5 260.7L282.0 260.7L283.1 259.7L286.4 254.5L288.6 249.5L288.9 248.2L289.7 246.5L289.9 244.8L290.7 242.8L290.8 239.2L291.2 235.8L290.7 230.2L289.5 227.0L286.7 222.8L284.0 220.7L280.2 219.1L276.8 219.0L273.2 220.2L271.0 221.5L268.6 223.6L265.6 227.0L262.3 232.2L259.2 237.8L256.2 244.2L254.1 249.5L253.9 250.8L253.1 252.5L252.9 254.0L252.1 255.5L251.9 257.5L251.1 259.2L250.9 262.0L250.0 264.5L250.0 268.2L249.0 272.8L249.0 292.5L250.0 298.8L249.9 301.0L249.0 302.0L242.3 306.3L239.0 309.3L236.5 312.3L235.2 314.5L234.0 317.2L234.1 320.7L234.4 321.3L235.0 321.4L238.5 319.4L240.5 317.9L248.5 314.0L250.0 313.9L250.4 314.1L250.9 314.8L251.1 317.5L252.0 321.0L252.1 326.0L253.0 329.0L253.1 333.8L254.0 337.2L254.0 342.2L255.0 345.5L255.0 350.2L256.0 354.0L255.9 360.0L255.2 361.8L254.9 363.5L253.8 366.5L251.8 371.5L247.7 379.5L245.5 382.7L241.9 387.2L240.7 388.2L238.5 389.7L236.2 390.9L230.8 391.0L229.8 390.6L228.0 389.5L226.2 387.9L225.1 386.5L223.8 384.0L223.8 383.0L224.0 382.2L228.2 377.7L232.8 372.2L236.5 366.5L238.8 362.0L241.5 356.0L241.9 354.0L242.7 352.2L242.9 349.8L243.7 347.2L243.7 339.5L242.9 337.5L242.5 335.8L241.5 334.0L239.7 331.8L237.5 330.1L236.0 329.3L235.0 329.0L232.0 329.1L231.2 329.4L227.5 331.9L223.1 336.5L219.6 342.0L218.4 344.2L215.1 352.2L214.9 353.8L214.1 355.5L213.9 357.5L213.1 359.2L212.9 361.5L212.1 363.8L211.9 367.0L211.0 369.8L211.0 376.0L210.6 380.5L211.0 384.2L211.0 387.5L210.8 388.5L209.5 391.3L211.0 390.9L211.6 391.3L212.8 393.8L213.3 395.5L216.4 401.5L218.3 403.7L221.3 406.4L223.5 407.6L227.2 408.7L229.5 408.7L231.2 407.9L233.2 407.5L235.5 406.4L239.6 403.4L241.4 401.5L244.6 397.2L246.5 394.2L249.4 389.0L252.6 382.2L254.9 375.5L255.6 374.0L256.0 372.0L256.8 371.4L257.5 371.8L258.0 373.5L258.0 379.8L259.0 383.8L259.0 391.0L260.0 397.0L260.0 421.5L259.1 425.2L259.0 429.8L258.1 432.5L257.9 435.5L257.1 437.2L256.9 439.5L256.1 441.2L255.9 442.8L254.9 445.8L251.7 452.5L247.4 458.7L243.8 462.8L240.5 466.9L231.9 475.5L225.1 481.4L220.5 485.7L217.5 488.0L214.5 490.9L209.5 494.9L194.2 509.0L191.3 511.3L186.5 515.9L181.5 520.0L176.5 524.7L173.3 527.2L169.7 530.5L165.0 534.1L164.4 534.2L164.1 533.9L164.2 533.2L167.5 526.0L170.6 517.8L170.9 516.2L171.6 514.5L171.9 512.5L172.7 510.8L172.9 508.5L173.7 506.5L173.8 503.8L174.7 501.2L174.8 498.2L175.7 495.5L175.8 490.0L176.7 484.8L176.7 473.0L175.8 467.5L175.7 461.2L174.8 457.8L174.7 453.2L173.8 450.0L173.7 445.8L172.8 443.0L172.7 439.8L171.8 437.2L171.7 434.0L170.9 431.8L170.7 429.0L169.8 426.5L169.7 424.0L168.9 422.0L168.7 419.5L167.8 417.2L167.7 415.0L166.8 412.8L166.7 410.2L165.8 408.0L165.7 405.5L164.9 403.5L164.6 400.8L163.8 398.5L163.7 395.8L162.9 393.8L162.7 391.5L161.8 389.2L161.7 386.5L160.8 384.2L160.7 382.0L159.9 379.8L159.7 377.2L158.8 375.0L158.7 372.8L158.0 370.5L158.3 370.1L158.7 370.2L159.8 371.5L172.0 394.2L183.6 414.0L192.6 430.2L198.8 442.5L203.8 454.5L204.1 456.0L204.9 457.5L205.9 460.2L206.1 461.8L206.9 463.5L207.1 465.0L207.9 466.8L208.1 468.8L208.9 471.2L209.2 476.0L210.1 479.7L210.4 480.0L210.8 480.0L211.5 479.2L211.9 477.5L212.6 476.0L212.9 474.2L213.7 472.2L213.9 470.5L214.7 468.5L214.9 466.5L215.7 464.5L215.7 450.0L214.8 446.8L214.7 442.5L213.8 440.0L213.7 436.8L212.8 434.2L212.7 431.5L211.8 429.2L211.7 426.8L210.8 424.5L210.7 422.0L209.8 419.8L209.7 417.5L208.8 415.2L208.7 413.2L207.9 411.0L207.6 408.5L206.8 406.5L206.6 404.0L205.8 402.0L205.7 399.2L204.8 397.2L204.7 394.5L203.8 392.0L203.7 389.0L202.8 386.5L202.7 383.2L201.8 380.8L201.7 377.0L200.8 373.8L200.7 369.8L199.8 366.5L199.7 361.5L198.8 357.8L198.7 348.8L197.8 341.8L198.0 339.2L197.8 335.8L198.0 331.8L198.7 326.8L198.8 321.5L199.7 318.0L199.8 313.8L200.7 311.0L200.9 307.8L201.7 305.5L201.8 302.5L202.6 300.5L202.8 298.2L203.6 296.2L203.9 294.2L204.6 292.5L204.9 290.8L205.6 289.0L205.9 287.2L207.6 282.8L208.0 281.0L210.9 273.8L214.0 266.8L219.1 257.2L224.3 249.0L229.5 241.8L233.1 237.3L242.0 227.2L244.5 224.8L248.8 221.2L252.5 217.7L261.5 210.9L267.5 206.9L277.2 201.1L283.5 197.9L299.2 191.0L304.5 188.9L313.0 185.9L314.5 185.6L316.0 184.9L317.5 184.6L319.2 183.9L321.0 183.6L322.8 182.9L324.5 182.6L326.2 181.9L328.2 181.7L330.0 180.9L331.8 180.6L333.5 179.9L335.5 179.6L337.2 178.9L339.5 178.7L341.5 177.8L343.5 177.7L345.5 176.9L347.8 176.6L350.0 175.8L352.0 175.6L354.0 174.9L356.5 174.7L358.8 173.8L361.2 173.7L363.8 172.8L366.2 172.7L368.8 171.8L372.0 171.7L374.8 170.8L378.2 170.7L381.2 169.8L385.5 169.7L389.0 168.8L393.0 168.7L397.0 167.8L402.8 167.7L406.7 166.9L407.5 167.3L407.6 168.0L405.1 172.5L404.9 174.8L404.1 177.2L403.9 180.8L403.0 184.0L402.9 188.9L403.5 189.4L404.8 188.9L407.7 187.0L408.4 186.0L409.5 183.8L409.8 181.0L410.7 177.8L410.9 172.8L411.6 170.5L411.9 168.8L412.8 167.3L415.5 164.8L428.0 155.4L444.5 144.4L451.2 138.0L452.2 136.5L452.3 136.1ZM231.0 344.9L232.8 346.3L233.6 347.5L234.0 348.8L234.0 357.0L233.1 359.2L232.9 361.0L230.6 365.8L226.4 371.7L223.1 375.3L222.5 375.7L221.8 375.8L221.3 375.6L220.9 375.0L219.8 370.2L219.8 364.2L220.1 361.2L220.7 358.5L220.8 355.5L221.6 353.5L221.9 351.8L223.3 349.0L225.8 346.3L228.2 344.9ZM295.5 303.9L296.5 304.4L297.4 305.3L298.9 307.8L299.0 309.5L298.9 315.8L298.1 317.2L297.9 319.0L295.7 324.2L292.1 330.0L287.9 334.5L287.2 335.0L286.5 335.0L286.1 334.7L285.8 334.0L285.7 331.2L285.0 328.2L284.8 323.8L285.7 318.8L285.8 314.0L286.6 311.8L286.9 310.0L288.1 307.3L289.0 306.1L290.5 304.8L292.2 303.8ZM504.5 130.4L504.1 130.5L503.6 131.0L503.0 132.8L503.0 144.0L503.3 144.9L503.8 145.2L506.5 144.6L509.5 143.5L510.9 142.6L511.3 142.0L510.9 140.8L508.2 136.5L505.7 131.5L505.2 130.8ZM493.9 125.2L493.3 125.2L492.5 126.0L488.2 133.8L487.2 136.0L486.0 140.2L486.0 168.5L487.0 174.8L487.0 181.0L488.0 185.8L488.0 191.8L488.9 195.2L489.0 200.2L490.0 203.8L490.0 208.2L490.9 211.8L491.0 216.2L491.5 218.8L491.0 221.5L491.0 225.5L490.1 228.2L489.9 230.8L488.7 234.2L487.5 236.5L486.7 237.7L484.5 239.7L483.8 239.9L482.8 239.9L481.8 239.3L480.7 238.2L478.9 235.2L478.6 233.5L477.8 231.5L477.7 228.5L476.8 225.2L476.7 219.0L475.8 214.0L475.7 200.2L475.2 193.2L474.8 191.8L474.3 190.8L473.7 190.3L472.7 190.0L471.5 190.1L470.8 190.4L467.5 194.4L463.0 196.7L460.0 198.6L456.3 202.1L454.9 203.8L452.3 207.2L448.2 214.5L445.1 221.8L444.9 223.2L444.1 225.0L443.8 226.8L441.8 231.5L440.1 234.2L437.8 236.2L437.0 236.5L436.3 236.5L435.4 235.5L434.8 233.2L434.7 229.5L433.8 227.2L433.6 225.0L432.5 222.2L430.2 218.0L428.2 216.3L426.2 216.0L425.0 216.1L424.3 216.3L422.7 218.0L421.1 221.2L420.9 223.5L420.1 226.0L420.1 236.0L421.7 239.0L427.5 245.0L427.9 246.0L428.0 251.8L427.0 257.2L426.9 261.5L426.1 263.8L425.9 266.5L425.1 268.5L424.9 270.2L424.1 272.0L423.7 274.0L422.7 275.3L422.0 275.3L421.5 274.7L418.1 268.0L414.9 260.2L413.6 256.2L411.9 252.2L411.6 250.8L408.5 242.8L405.5 235.5L403.5 231.5L402.4 230.0L401.5 229.5L401.0 229.8L400.2 231.0L399.9 232.5L396.2 242.2L395.9 243.8L395.1 245.2L395.0 248.0L396.2 250.2L399.4 255.0L401.8 259.5L403.9 264.5L405.1 268.2L405.8 269.5L406.1 271.0L408.9 277.5L413.2 289.2L416.2 296.2L417.2 298.2L417.8 298.6L418.8 298.6L419.7 298.0L421.9 295.0L423.6 291.5L423.9 290.2L424.6 288.8L424.9 287.0L425.6 285.5L425.9 283.5L426.6 282.0L426.9 280.0L427.7 278.2L427.8 276.2L428.6 274.5L428.8 272.5L429.7 270.5L429.8 268.5L430.6 266.5L430.8 264.5L431.7 262.2L431.9 259.8L432.7 257.8L432.8 254.8L433.7 251.8L433.8 246.8L433.9 245.8L434.8 244.5L437.6 242.4L440.8 238.9L441.4 238.8L441.7 239.5L441.0 242.2L441.0 254.8L441.9 258.0L442.1 260.8L442.9 262.5L443.2 264.2L445.3 268.5L446.8 270.5L448.0 271.6L451.0 273.6L454.8 273.7L457.2 272.4L459.0 271.0L462.4 266.0L464.5 262.0L465.5 259.5L465.9 258.0L466.6 256.5L466.9 255.0L467.6 253.5L467.9 251.2L469.1 248.9L469.5 248.8L469.8 249.1L470.4 251.0L472.1 253.5L473.3 254.7L474.5 255.6L476.5 256.6L477.8 256.7L479.5 256.6L481.5 255.6L483.5 254.4L484.7 253.2L487.2 249.5L488.5 247.0L490.6 242.0L490.9 240.2L491.6 238.8L491.9 235.5L493.1 231.9L493.5 231.8L493.9 232.1L495.5 234.7L497.0 236.1L500.5 237.4L501.8 237.4L504.5 236.4L506.4 234.6L508.4 231.5L510.6 227.2L512.6 222.2L512.8 220.8L513.7 219.0L513.9 217.0L514.7 215.2L514.8 213.5L515.7 211.2L515.7 207.8L515.4 207.5L515.0 207.8L510.7 216.2L508.5 219.7L507.5 220.6L506.8 220.9L505.8 220.9L505.0 220.4L504.1 219.5L503.1 218.0L501.9 214.5L501.7 211.2L500.8 207.5L500.7 202.5L499.8 197.8L499.7 192.5L498.8 188.0L498.7 182.5L497.8 177.8L497.7 171.0L496.8 165.5L496.7 158.2L495.8 151.5L495.7 140.2L494.8 133.0L494.7 127.0L494.4 125.8ZM463.5 208.8L464.5 209.1L465.7 210.3L466.5 212.0L467.0 213.5L467.0 236.0L466.1 239.8L465.9 243.5L465.1 245.5L464.9 247.2L463.8 250.2L462.6 252.8L461.0 255.0L459.8 255.9L458.0 256.2L456.8 255.9L456.0 255.5L453.5 253.0L451.9 250.2L450.8 247.2L450.7 245.0L449.8 242.0L449.7 237.0L449.5 234.5L449.7 232.0L449.8 226.8L450.7 224.2L450.9 222.0L451.6 220.5L452.0 218.8L453.0 216.5L454.9 213.5L456.9 211.3L458.8 210.1L461.2 208.9ZM514.8 114.0L514.2 114.5L512.9 119.0L512.1 120.5L510.1 126.5L509.5 130.8L509.6 132.2L510.4 135.0L513.8 140.5L516.6 145.5L519.9 153.8L520.1 155.5L520.9 157.5L521.1 159.2L521.9 161.2L522.1 163.8L522.9 166.2L523.1 170.0L524.0 173.5L524.0 180.2L524.3 184.0L524.6 185.4L525.2 185.8L525.6 185.4L525.9 183.5L526.6 181.8L526.9 179.0L527.7 176.5L527.8 172.2L528.7 167.2L528.7 154.2L527.8 149.8L527.7 146.8L526.8 144.0L526.6 141.5L525.9 139.8L525.6 138.0L524.9 136.2L524.6 134.8L521.5 127.0L515.6 114.3ZM616.3 110.8L615.5 111.1L614.8 112.0L597.0 140.0L581.7 162.5L573.2 174.0L566.4 182.7L560.1 190.5L554.2 198.0L548.7 204.5L544.6 209.0L540.9 213.5L535.0 219.5L529.7 225.7L515.2 240.5L492.7 262.7L487.8 266.8L483.5 270.9L478.8 274.8L475.2 278.1L471.3 281.2L467.5 284.7L465.0 286.5L461.5 289.8L458.3 292.2L450.7 298.6L448.5 300.1L445.7 302.6L438.5 308.0L436.5 309.8L432.5 312.8L430.5 314.0L428.5 315.8L411.3 328.3L409.5 329.8L407.5 331.0L393.2 341.9L375.3 354.4L373.5 355.8L371.5 357.0L369.5 358.7L364.5 362.0L362.7 363.5L353.5 370.0L351.5 371.8L349.3 373.2L347.2 375.0L335.5 384.0L332.7 386.5L330.3 388.2L323.5 393.8L321.5 395.1L318.7 397.5L316.5 399.0L314.2 401.0L311.8 402.8L303.5 409.8L300.5 412.0L294.8 417.5L289.8 421.8L284.3 427.2L279.0 433.5L276.3 437.5L274.2 442.2L268.9 457.5L264.2 469.2L264.1 470.0L264.4 470.4L265.2 470.6L266.3 469.8L282.4 453.6L284.3 451.0L291.0 443.0L305.2 428.9L307.5 426.8L310.2 424.7L314.1 421.1L316.5 419.4L319.8 416.5L322.2 414.8L325.0 412.3L327.4 410.6L330.0 408.3L332.0 407.0L334.3 404.9L358.3 387.1L367.2 381.1L372.0 378.2L378.0 375.0L383.2 372.6L387.7 370.2L388.5 369.2L388.7 368.2L388.7 364.8L388.1 363.2L390.0 361.1L391.5 359.7L394.0 358.0L396.5 355.7L398.7 354.2L401.3 351.9L403.7 350.2L406.3 347.9L408.5 346.4L411.3 343.9L413.5 342.4L420.8 336.5L423.0 335.0L425.8 332.5L428.0 331.0L430.3 328.9L442.2 319.8L450.3 313.1L452.4 311.6L455.8 308.6L458.0 307.0L461.8 303.5L464.2 301.7L469.1 297.1L473.4 293.6L477.3 289.8L483.4 284.7L491.7 276.5L500.5 268.5L514.6 254.5L532.2 235.7L535.9 231.3L540.0 227.0L542.3 224.0L545.5 220.5L547.5 217.8L550.7 214.2L552.5 211.8L555.2 208.8L563.4 198.5L577.6 179.2L591.4 158.5L596.4 150.5L603.4 138.2L608.7 128.2L613.5 118.5L615.6 113.8L616.3 111.3ZM646.6 54.7L646.2 54.6L645.3 55.3L637.0 64.2L631.5 69.5L625.0 75.2L613.2 83.9L601.8 91.4L587.5 99.5L579.2 103.8L570.8 107.8L551.5 115.9L547.2 117.1L545.8 117.9L544.2 118.1L540.0 119.9L538.5 120.1L532.5 122.4L531.5 123.5L531.1 125.0L531.9 127.8L532.1 131.2L532.9 134.2L533.3 136.9L533.8 137.3L534.5 137.3L537.8 136.6L539.2 135.9L540.8 135.6L551.8 131.5L560.5 127.5L572.2 121.5L588.2 112.5L596.7 107.1L603.7 102.1L612.7 95.2L619.2 89.8L627.7 81.8L631.8 77.2L635.6 72.2L643.5 60.5L646.5 55.5ZM663.0 40.4L661.9 41.5L656.3 50.0L646.2 67.5L640.2 78.8L634.2 92.0L629.1 105.2L627.9 109.5L626.1 114.0L625.9 115.5L625.1 117.2L624.9 118.8L624.2 120.2L623.9 122.0L623.2 123.8L622.9 125.5L622.1 127.5L621.9 129.8L621.1 131.8L620.9 133.8L620.1 136.0L619.9 138.0L619.1 140.5L618.9 142.5L618.1 144.8L617.9 147.2L617.1 150.0L616.9 152.5L616.1 155.2L615.9 158.5L615.1 161.5L614.9 165.2L614.1 168.2L613.9 172.2L613.0 176.2L612.9 180.5L612.0 184.5L612.0 191.2L611.0 196.0L611.0 202.8L610.0 209.0L610.0 222.0L609.0 230.2L609.0 249.5L608.8 251.5L608.7 255.2L608.3 259.8L608.2 265.0L608.0 267.0L608.0 291.5L607.8 293.5L607.7 298.0L607.0 306.0L607.0 325.8L606.0 333.5L606.0 343.2L605.0 349.2L605.0 356.5L604.0 361.0L604.0 366.8L603.0 370.5L602.9 374.5L602.1 377.0L602.0 380.5L601.1 383.2L600.9 386.2L600.1 388.2L599.9 391.0L599.1 393.2L598.9 395.2L598.1 397.0L597.9 399.0L597.1 400.8L596.9 402.5L596.2 404.0L595.9 405.8L595.2 407.2L593.9 411.8L590.8 419.2L585.9 429.2L583.1 434.0L577.2 443.0L571.0 451.2L567.8 454.8L565.5 457.8L552.7 470.7L545.5 476.7L537.5 482.7L528.5 488.6L521.2 492.8L509.2 498.8L501.2 502.2L497.0 504.3L493.2 506.4L491.4 508.2L489.3 512.0L489.1 513.2L489.4 513.9L489.8 514.1L491.2 513.6L500.5 507.9L508.0 504.0L521.2 497.5L536.5 489.3L539.5 487.5L548.7 481.2L551.3 478.9L554.4 476.6L558.3 473.0L561.2 470.7L563.5 468.6L577.2 454.7L579.5 451.8L582.4 448.5L588.1 440.7L593.5 432.2L599.5 420.8L603.4 412.0L607.6 401.5L611.6 389.5L611.9 388.0L612.7 386.0L612.9 384.2L613.7 382.5L613.8 380.5L614.7 378.2L614.8 376.2L615.7 374.0L615.8 371.5L616.7 368.8L616.9 366.0L617.7 363.8L617.8 360.0L618.7 357.0L618.8 353.0L619.7 349.8L619.8 344.8L620.7 340.2L620.8 334.2L621.7 329.2L621.8 319.2L622.7 311.5L622.8 293.0L623.5 281.2L623.7 273.5L623.5 272.0L623.7 270.0L623.8 225.5L624.7 210.5L624.8 198.0L625.7 190.8L625.8 183.0L626.7 176.5L626.8 171.2L627.7 166.8L627.8 162.0L628.7 157.8L628.8 153.8L629.7 150.0L629.8 146.2L630.7 142.8L630.8 139.8L631.7 136.8L631.9 133.5L632.7 130.8L632.8 128.5L633.6 125.8L633.8 123.2L634.6 120.8L634.9 118.5L635.6 116.5L635.9 114.5L636.6 112.5L636.9 110.5L637.6 108.8L637.9 106.8L638.6 104.8L639.9 99.8L640.6 98.0L641.9 93.0L643.6 88.2L643.9 86.8L650.0 70.5L652.1 66.0L654.6 62.2L656.0 59.5L658.3 52.8L662.9 41.3Z"/></symbol></svg>
